<?xml version="1.0" encoding="UTF-8"?>
<svg xmlns="http://www.w3.org/2000/svg" version="1.1" xmlns:xlink="http://www.w3.org/1999/xlink" viewBox="0 0 375 375">
  <defs>
    <style>
      .cls-1 {
        clip-path: url(#clippath-21);
      }

      .cls-2 {
        clip-path: url(#clippath-6);
      }

      .cls-3 {
        clip-path: url(#clippath-7);
      }

      .cls-4 {
        clip-path: url(#clippath-17);
      }

      .cls-5 {
        clip-path: url(#clippath-15);
      }

      .cls-6 {
        clip-path: url(#clippath-18);
      }

      .cls-7 {
        clip-path: url(#clippath-4);
      }

      .cls-8 {
        clip-path: url(#clippath-22);
      }

      .cls-9 {
        clip-path: url(#clippath-23);
      }

      .cls-10 {
        clip-path: url(#clippath-9);
      }

      .cls-11 {
        clip-path: url(#clippath-10);
      }

      .cls-12 {
        fill: #fff;
      }

      .cls-13 {
        clip-path: url(#clippath-25);
      }

      .cls-14 {
        clip-path: url(#clippath-27);
      }

      .cls-15, .cls-16 {
        fill: #004aad;
      }

      .cls-17 {
        clip-path: url(#clippath-11);
      }

      .cls-18 {
        fill: none;
      }

      .cls-19 {
        clip-path: url(#clippath-28);
      }

      .cls-16 {
        font-family: Siwa-Bold, 'Siwa Bold';
        font-size: 18px;
      }

      .cls-16, .cls-20 {
        font-weight: 700;
      }

      .cls-21 {
        clip-path: url(#clippath-1);
      }

      .cls-22 {
        clip-path: url(#clippath-5);
      }

      .cls-23 {
        clip-path: url(#clippath-20);
      }

      .cls-24 {
        clip-path: url(#clippath-8);
      }

      .cls-25 {
        clip-path: url(#clippath-3);
      }

      .cls-26 {
        clip-path: url(#clippath-26);
      }

      .cls-27 {
        opacity: 0;
      }

      .cls-28, .cls-20 {
        fill: #ff914d;
      }

      .cls-29 {
        clip-path: url(#clippath-12);
      }

      .cls-30 {
        clip-path: url(#clippath-14);
      }

      .cls-31 {
        clip-path: url(#clippath-19);
      }

      .cls-32 {
        display: none;
      }

      .cls-33 {
        clip-path: url(#clippath-16);
      }

      .cls-34 {
        clip-path: url(#clippath-2);
      }

      .cls-20 {
        font-family: CocomatPro-Bold, 'CocomatPro Bold';
        font-size: 12px;
      }

      .cls-35 {
        clip-path: url(#clippath-13);
      }

      .cls-36 {
        clip-path: url(#clippath-24);
      }

      .cls-37 {
        clip-path: url(#clippath);
      }
    </style>
    <clipPath id="clippath">
      <rect class="cls-18" y="-8.04" width="375" height="375"/>
    </clipPath>
    <clipPath id="clippath-1">
      <rect class="cls-18" y="-8.04" width="375" height="375"/>
    </clipPath>
    <clipPath id="clippath-2">
      <rect class="cls-18" y="-8.04" width="375" height="375"/>
    </clipPath>
    <clipPath id="clippath-3">
      <rect class="cls-18" y="-8.04" width="375" height="375"/>
    </clipPath>
    <clipPath id="clippath-4">
      <rect class="cls-18" x="239.44" y="149.53" width="40.22" height="40.22"/>
    </clipPath>
    <clipPath id="clippath-5">
      <polygon class="cls-18" points="251.23 189.75 239.44 177.97 239.44 161.32 251.23 149.53 267.88 149.53 279.66 161.32 279.66 177.97 267.88 189.75 251.23 189.75"/>
    </clipPath>
    <clipPath id="clippath-6">
      <rect class="cls-18" y="-8.04" width="375" height="375"/>
    </clipPath>
    <clipPath id="clippath-7">
      <rect class="cls-18" y="-8.04" width="375" height="375"/>
    </clipPath>
    <clipPath id="clippath-8">
      <rect class="cls-18" x="279.66" y="109.31" width="40.22" height="40.22"/>
    </clipPath>
    <clipPath id="clippath-9">
      <polygon class="cls-18" points="291.45 149.53 279.66 137.75 279.66 121.1 291.45 109.31 308.1 109.31 319.88 121.1 319.88 137.75 308.1 149.53 291.45 149.53"/>
    </clipPath>
    <clipPath id="clippath-10">
      <rect class="cls-18" y="-8.04" width="375" height="375"/>
    </clipPath>
    <clipPath id="clippath-11">
      <rect class="cls-18" y="-8.04" width="375" height="375"/>
    </clipPath>
    <clipPath id="clippath-12">
      <rect class="cls-18" x="239.44" y="69.09" width="40.22" height="40.22"/>
    </clipPath>
    <clipPath id="clippath-13">
      <polygon class="cls-18" points="251.23 109.31 239.44 97.53 239.44 80.88 251.23 69.09 267.88 69.09 279.66 80.88 279.66 97.53 267.88 109.31 251.23 109.31"/>
    </clipPath>
    <clipPath id="clippath-14">
      <rect class="cls-18" x="247.31" y="76.47" width="24.75" height="25.5"/>
    </clipPath>
    <clipPath id="clippath-15">
      <rect class="cls-18" y="-8.04" width="375" height="375"/>
    </clipPath>
    <clipPath id="clippath-16">
      <rect class="cls-18" y="-8.04" width="375" height="375"/>
    </clipPath>
    <clipPath id="clippath-17">
      <rect class="cls-18" y="-8.04" width="375" height="375"/>
    </clipPath>
    <clipPath id="clippath-18">
      <rect class="cls-18" x="223.37" y="137.46" width="16.07" height="16.07"/>
    </clipPath>
    <clipPath id="clippath-19">
      <polygon class="cls-18" points="228.08 153.54 223.37 148.83 223.37 142.17 228.08 137.46 234.73 137.46 239.44 142.17 239.44 148.83 234.73 153.54 228.08 153.54"/>
    </clipPath>
    <clipPath id="clippath-20">
      <rect class="cls-18" y="-8.04" width="375" height="375"/>
    </clipPath>
    <clipPath id="clippath-21">
      <rect class="cls-18" y="-8.04" width="375" height="375"/>
    </clipPath>
    <clipPath id="clippath-22">
      <rect class="cls-18" x="207.29" y="121.39" width="16.07" height="16.07"/>
    </clipPath>
    <clipPath id="clippath-23">
      <polygon class="cls-18" points="212 137.46 207.29 132.75 207.29 126.1 212 121.39 218.66 121.39 223.37 126.1 223.37 132.75 218.66 137.46 212 137.46"/>
    </clipPath>
    <clipPath id="clippath-24">
      <rect class="cls-18" y="-8.04" width="375" height="375"/>
    </clipPath>
    <clipPath id="clippath-25">
      <rect class="cls-18" y="-8.04" width="375" height="375"/>
    </clipPath>
    <clipPath id="clippath-26">
      <rect class="cls-18" x="223.37" y="105.31" width="16.07" height="16.07"/>
    </clipPath>
    <clipPath id="clippath-27">
      <polygon class="cls-18" points="228.08 121.39 223.37 116.68 223.37 110.02 228.08 105.31 234.73 105.31 239.44 110.02 239.44 116.68 234.73 121.39 228.08 121.39"/>
    </clipPath>
    <clipPath id="clippath-28">
      <rect class="cls-18" x="226.64" y="140.19" width="9.76" height="10.41"/>
    </clipPath>
  </defs>
  <!-- Generator: Adobe Illustrator 28.7.1, SVG Export Plug-In . SVG Version: 1.2.0 Build 142)  -->
  <g>
    <g id="Layer_1">
      <g class="cls-32">
        <g class="cls-37">
          <rect class="cls-12" y="-8.04" width="375" height="375"/>
        </g>
      </g>
      <g class="cls-32">
        <g class="cls-21">
          <rect class="cls-12" y="-8.04" width="375" height="375"/>
        </g>
      </g>
      <g>
        <g class="cls-34">
          <g class="cls-25">
            <g class="cls-7">
              <g class="cls-22">
                <rect class="cls-15" x="239.44" y="149.53" width="40.22" height="40.22"/>
              </g>
            </g>
          </g>
        </g>
        <g class="cls-2">
          <g class="cls-3">
            <g class="cls-24">
              <g class="cls-10">
                <rect class="cls-28" x="279.66" y="109.31" width="40.22" height="40.22"/>
              </g>
            </g>
          </g>
        </g>
        <g class="cls-11">
          <g class="cls-17">
            <g class="cls-29">
              <g class="cls-35">
                <rect class="cls-15" x="239.44" y="69.09" width="40.22" height="40.22"/>
              </g>
            </g>
          </g>
        </g>
        <g class="cls-30">
          <path class="cls-28" d="M253.8,79.55c0-.39.32-.71.71-.71s.71.32.71.71-.32.71-.71.71-.71-.32-.71-.71ZM263.9,79.55c0-.39.32-.71.71-.71s.71.32.71.71-.32.71-.71.71-.71-.32-.71-.71ZM257.17,98.83c0-.39.32-.71.71-.71s.71.32.71.71-.32.71-.71.71-.71-.32-.71-.71ZM257.17,94.01c0-.39.32-.71.71-.71s.71.32.71.71-.32.71-.71.71-.71-.32-.71-.71ZM263.9,81.96c0-.39.32-.71.71-.71s.71.32.71.71-.32.71-.71.71-.71-.32-.71-.71ZM257.17,79.55c0-.39.32-.71.71-.71s.71.32.71.71-.32.71-.71.71-.71-.32-.71-.71ZM257.17,77.16c-.01-.4.31-.73.71-.73.2,0,.39.09.51.22.17.18.4.3.65.3h1.04c.25,0,.48-.11.65-.3.13-.14.31-.22.51-.22.4,0,.72.33.71.73-.01.37-.33.68-.7.69-.21,0-.39-.08-.52-.22-.17-.18-.4-.29-.65-.29h-1.04c-.25,0-.48.11-.65.29-.13.14-.32.23-.52.22-.37,0-.69-.31-.7-.69ZM257.17,84.37c0-.39.32-.71.71-.71s.71.32.71.71-.32.71-.71.71-.71-.32-.71-.71ZM257.17,96.42c0-.39.32-.71.71-.71s.71.32.71.71-.32.71-.71.71-.71-.32-.71-.71ZM247.07,86.78c0-.39.32-.71.71-.71s.71.32.71.71-.32.71-.71.71-.71-.32-.71-.71ZM247.07,84.37c0-.39.32-.71.71-.71s.71.32.71.71-.32.71-.71.71-.71-.32-.71-.71ZM250.66,89.71c-.14-.13-.22-.31-.22-.51,0-.4.33-.72.73-.71.37.01.68.33.69.7,0,.21-.08.39-.22.52-.18.17-.29.4-.29.65v.09c0,.24.09.47.27.63.03.02.05.05.07.07.16.18.39.27.63.27h1.04c.25,0,.48-.11.65-.29.14-.15.35-.24.58-.22.33.03.61.3.64.64.03.35-.2.66-.51.75v1.05c.3.08.52.36.52.68,0,.4-.33.72-.73.71-.37-.01-.68-.33-.69-.7,0-.33.22-.6.52-.69v-1.05c-.14-.04-.25-.11-.34-.22-.16-.18-.39-.27-.63-.27h-1.04c-.25,0-.48.11-.65.29-.14.15-.35.24-.58.22-.33-.03-.61-.3-.64-.64-.02-.23.07-.44.22-.58.18-.17.29-.4.29-.65v-.09c0-.25-.11-.48-.3-.65ZM247.07,77.14c0-.39.32-.71.71-.71s.71.32.71.71-.32.71-.71.71-.71-.32-.71-.71ZM247.59,92.85v-.09c0-.25-.11-.48-.3-.65-.14-.13-.22-.31-.22-.51,0-.4.33-.72.73-.71.37.01.68.33.69.7,0,.21-.08.39-.22.52-.18.17-.29.4-.29.65v.09c0,.25.11.48.29.65,0,0,0,.01.02.02,0,0,.01.01.02.02.17.18.4.3.65.3h.09c.25,0,.48-.11.65-.3.13-.14.31-.22.51-.22.4,0,.72.33.71.73-.01.37-.33.68-.7.69-.21,0-.39-.08-.52-.22-.17-.18-.4-.29-.65-.29h-.09c-.25,0-.48.11-.65.29-.05.06-.12.1-.19.14,0,0-.01,0-.02,0-.02.01-.04.02-.07.03-.03,0-.05.02-.08.03,0,0,0,0,0,0-.01,0-.03,0-.04,0-.01,0-.02,0-.03,0-.01,0-.02,0-.03,0,0,0-.02,0-.03,0,0,0,0,0-.01,0,0,0,0,0-.01,0,0,0-.02,0-.02,0-.01,0-.02,0-.04,0,0,0-.02,0-.03,0-.02,0-.03,0-.05,0,0,0,0,0,0,0-.27-.06-.48-.27-.54-.53,0,0,0,0,0,0,0-.02,0-.03,0-.05,0,0,0-.02,0-.03,0-.01,0-.02,0-.04,0,0,0-.02,0-.03,0,0,0,0,0-.01,0,0,0,0,0-.01,0,0,0-.02,0-.03,0-.01,0-.03,0-.04,0-.01,0-.02,0-.03,0-.01,0-.03,0-.04,0-.01,0-.02,0-.03,0-.01,0-.03.01-.04,0,0,0-.02.01-.03,0-.01,0-.03.01-.04,0,0,0-.02.01-.03,0-.01.01-.03.02-.04,0,0,0-.01.01-.02,0-.01.02-.03.02-.04,0,0,0-.01.01-.02,0-.01.02-.03.03-.04,0,0,0,0,.01-.01.01-.01.02-.03.04-.04,0,0,0,0,0,0,.18-.17.3-.4.3-.65ZM247.59,80.8v-.09c0-.25-.11-.48-.3-.65-.14-.13-.22-.31-.22-.51,0-.4.33-.72.73-.71.37.01.68.33.69.7,0,.21-.08.39-.22.52-.18.17-.29.4-.29.65v.09c0,.25.11.48.29.65.14.13.23.32.22.52,0,.37-.31.69-.69.7-.4.01-.73-.31-.73-.71,0-.2.09-.39.22-.51.18-.17.3-.4.3-.65ZM250.96,80.8v-.09c0-.25-.11-.48-.3-.65-.14-.13-.22-.31-.22-.51,0-.4.33-.72.73-.71.37.01.68.33.69.7,0,.21-.08.39-.22.52-.18.17-.29.4-.29.65v.09c0,.25.11.48.29.65.14.13.23.32.22.52,0,.37-.31.69-.69.7-.4.01-.73-.31-.73-.71,0-.2.09-.39.22-.51.18-.17.3-.4.3-.65ZM250.44,77.14c0-.39.32-.71.71-.71s.71.32.71.71-.32.71-.71.71-.71-.32-.71-.71ZM251.66,86.3c.17.18.4.3.65.3h1.04c.24,0,.47-.09.63-.27.02-.03.05-.05.07-.07.18-.16.27-.39.27-.63v-.09c0-.25-.11-.48-.3-.65-.14-.13-.22-.31-.22-.51,0-.4.33-.72.73-.71.37.01.68.33.69.7,0,.21-.08.39-.22.52-.18.17-.29.4-.29.65v.09c0,.25.11.48.29.65.15.14.24.35.22.58-.03.33-.3.61-.64.64-.23.02-.44-.07-.58-.22-.17-.18-.4-.29-.65-.29h-1.04c-.25,0-.48.11-.65.29-.13.14-.32.23-.52.22-.37,0-.69-.31-.7-.69-.01-.4.31-.73.71-.73.2,0,.39.09.51.22ZM260.53,98.83c0-.39.32-.71.71-.71s.71.32.71.71-.32.71-.71.71-.71-.32-.71-.71ZM261.95,81.96c0,.39-.32.71-.71.71s-.71-.32-.71-.71.32-.71.71-.71.71.32.71.71ZM264.42,90.44v-.09c0-.25-.11-.48-.29-.65-.14-.13-.23-.32-.22-.52,0-.37.31-.69.69-.7.4-.01.73.31.73.71,0,.2-.09.39-.22.51-.18.17-.3.4-.3.65v.09c0,.25.11.48.3.65.14.13.22.31.22.51s-.09.39-.22.51c-.18.17-.3.4-.3.65v.09c0,.25.11.48.3.65.14.13.22.31.22.51,0,.4-.33.72-.73.71-.37-.01-.68-.33-.69-.7,0-.21.08-.39.22-.52.18-.17.29-.4.29-.65v-.09c0-.25-.11-.48-.3-.65-.14-.13-.22-.31-.22-.51s.09-.39.22-.51c.18-.17.3-.4.3-.65ZM261.76,83.89c.17.18.4.3.65.3h1.04c.25,0,.48-.11.65-.3.13-.14.31-.22.51-.22.4,0,.72.33.71.73-.01.37-.33.68-.7.69-.21,0-.39-.08-.52-.22-.17-.18-.4-.29-.65-.29h-1.04c-.25,0-.48.11-.65.29-.13.14-.32.23-.52.22-.37,0-.69-.31-.7-.69-.01-.4.31-.73.71-.73.2,0,.39.09.51.22ZM255.22,101.24c0,.39-.32.71-.71.71s-.71-.32-.71-.71.32-.71.71-.71.71.32.71.71ZM251.85,96.4c.01.4-.31.73-.71.73-.2,0-.39-.09-.51-.22-.17-.18-.4-.3-.65-.3h-1.04c-.25,0-.48.11-.65.3-.13.14-.31.22-.51.22-.4,0-.72-.33-.71-.73.01-.37.33-.68.7-.69.21,0,.39.08.52.22.17.18.4.29.65.29h1.04c.25,0,.48-.11.65-.29.13-.14.32-.23.52-.22.37,0,.69.31.7.69ZM264.8,99.99v.09c0,.25.11.48.29.65.15.14.24.35.22.58-.03.33-.3.61-.64.64-.23.02-.44-.07-.58-.22-.17-.18-.4-.29-.65-.29h-1.04c-.25,0-.48.11-.65.3-.13.14-.31.22-.51.22-.4,0-.72-.33-.71-.73.01-.37.33-.68.7-.69.21,0,.39.08.52.22.17.18.4.29.65.29h1.04c.24,0,.47-.09.63-.27.02-.03.05-.05.07-.07.18-.16.27-.39.27-.63v-.09c0-.25-.11-.48-.29-.65-.14-.13-.23-.32-.22-.52,0-.37.31-.69.69-.7.4-.01.73.31.73.71,0,.2-.09.39-.22.51-.18.17-.3.4-.3.65ZM255.22,96.42c0,.39-.32.71-.71.71s-.71-.32-.71-.71.32-.71.71-.71.71.32.71.71ZM260.53,94.01c0-.39.32-.71.71-.71s.71.32.71.71-.32.71-.71.71-.71-.32-.71-.71ZM263.9,77.14c0-.39.32-.71.71-.71s.71.32.71.71-.32.71-.71.71-.71-.32-.71-.71ZM267.26,86.78c0-.39.32-.71.71-.71s.71.32.71.71-.32.71-.71.71-.71-.32-.71-.71ZM267.78,90.44v-.09c0-.25-.11-.48-.3-.65-.14-.13-.22-.31-.22-.51,0-.4.33-.72.73-.71.37.01.68.33.69.7,0,.21-.08.39-.22.52-.18.17-.29.4-.29.65v.09c0,.25.11.48.29.65.14.13.23.32.22.52,0,.37-.31.69-.69.7-.4.01-.73-.31-.73-.71,0-.2.09-.39.22-.51.18-.17.3-.4.3-.65ZM267.26,81.96c0-.39.32-.71.71-.71s.71.32.71.71-.32.71-.71.71-.71-.32-.71-.71ZM267.26,94.01c0-.39.32-.71.71-.71s.71.32.71.71-.32.71-.71.71-.71-.32-.71-.71ZM271.15,83.21v-.09c0-.25-.11-.48-.3-.65-.14-.13-.22-.31-.22-.51,0-.4.33-.72.73-.71.37.01.68.33.69.7,0,.21-.08.39-.22.52-.18.17-.29.4-.29.65v.09c0,.25.11.48.29.65.14.13.23.32.22.52,0,.37-.31.69-.69.7-.4.01-.73-.31-.73-.71,0-.2.09-.39.22-.51.18-.17.3-.4.3-.65ZM265.12,95.94c.17.18.4.29.65.29h1.04c.25,0,.48-.11.65-.29.13-.14.32-.23.52-.22.37,0,.69.31.7.69.01.4-.31.73-.71.73-.2,0-.39-.09-.51-.22-.17-.18-.4-.3-.65-.3h-1.04c-.25,0-.48.11-.65.3-.13.14-.31.22-.51.22-.4,0-.72-.33-.71-.73.01-.37.33-.68.7-.69.21,0,.39.08.52.22ZM272.04,94.01c0,.39-.32.71-.71.71s-.71-.32-.71-.71.32-.71.71-.71.71.32.71.71ZM272.04,96.42c0,.39-.32.71-.71.71s-.71-.32-.71-.71.32-.71.71-.71.71.32.71.71ZM272.04,86.78c0,.39-.32.71-.71.71s-.71-.32-.71-.71.32-.71.71-.71.71.32.71.71ZM258.38,91.11h-.01v-3.82h0s.01-.01.01-.01h2.36v3.82h0s-.01.01-.01.01h-2.35ZM268.48,79.06h-.01v-1.41h0s.01-.01.01-.01h2.36v1.41h0s-.01.01-.01.01h-2.35ZM267.72,77.8v-.75c0-.09.07-.16.16-.16h3.55c.09,0,.16.07.16.16v2.6c0,.09-.07.16-.16.16h-3.55c-.09,0-.16-.07-.16-.16v-1.84ZM267.88,80.26h3.55c.34,0,.61-.28.61-.61v-2.6c0-.34-.28-.61-.61-.61h-3.55c-.34,0-.61.28-.61.61v2.6c0,.34.28.61.61.61ZM248.29,100.75h-.01v-1.41h0s.01-.01.01-.01h2.36v1.41h0s-.01.01-.01.01h-2.35ZM247.53,99.49v-.75c0-.09.07-.16.16-.16h3.55c.09,0,.16.07.16.16v2.6c0,.09-.07.16-.16.16h-3.55c-.09,0-.16-.07-.16-.16v-1.84ZM247.69,101.95h3.55c.34,0,.61-.28.61-.61v-2.6c0-.34-.28-.61-.61-.61h-3.55c-.34,0-.61.28-.61.61v2.6c0,.34.28.61.61.61ZM270.83,99.33h.01v1.41h0s-.01.01-.01.01h-2.36v-1.41h0s.01-.01.01-.01h2.35ZM271.59,100.58v.75c0,.09-.07.16-.16.16h-3.55c-.09,0-.16-.07-.16-.16v-2.6c0-.09.07-.16.16-.16h3.55c.09,0,.16.07.16.16v1.84ZM271.43,98.12h-3.55c-.34,0-.61.28-.61.61v2.6c0,.34.28.61.61.61h3.55c.34,0,.61-.28.61-.61v-2.6c0-.34-.28-.61-.61-.61ZM257.62,89.85v-3.16c0-.09.07-.16.16-.16h3.55c.09,0,.16.07.16.16v5.01c0,.09-.07.16-.16.16h-3.55c-.09,0-.16-.07-.16-.16v-1.84ZM257.78,92.31h3.55c.34,0,.61-.28.61-.61v-5.01c0-.34-.28-.61-.61-.61h-3.55c-.34,0-.61.28-.61.61v5.01c0,.34.28.61.61.61Z"/>
        </g>
        <g class="cls-5">
          <path class="cls-15" d="M109.27,192.06h.51l.42.42v1.11l-.42.42h-1.05c-1.2,0-2.05-.44-2.55-1.31-.42.27-.88.46-1.37.59-.59.14-1.18.17-1.75.1-.58-.07-1.11-.26-1.58-.57-.48-.3-.86-.72-1.14-1.26-.28-.53-.43-1.19-.43-1.96s.18-1.42.54-2c.36-.59.85-1.05,1.47-1.4.62-.35,1.32-.52,2.11-.53h3.45c.4,0,.6.2.6.6v4.49c0,.42.08.74.25.97.17.23.48.34.93.34ZM103.69,183.21c0,.67-.33,1-.99,1s-1.02-.33-1.02-1,.34-1.01,1.02-1.01.99.34.99,1.01h0ZM104.59,191.4c.42-.1.82-.29,1.2-.57v-3.21h-1.73c-.55,0-1,.19-1.36.57-.36.38-.54.85-.54,1.41,0,.51.11.91.34,1.21s.52.5.89.6c.37.1.77.1,1.2-.01ZM106.36,183.21c0,.67-.34,1-1.01,1s-1-.33-1-1,.33-1.01,1-1.01,1.01.34,1.01,1.01h0Z"/>
          <path class="cls-15" d="M119.43,194.01h-9.66l-.42-.42v-1.11l.42-.42h6.38c-.13-.15-.22-.36-.27-.62-.05-.26-.07-.59-.07-.97v-.65c0-.57-.18-.99-.53-1.27-.35-.27-.81-.41-1.36-.41-.43,0-.84.03-1.24.08-.4.06-.86.17-1.39.34-.31.09-.47,0-.47-.3v-.91c0-.14.03-.27.1-.39.06-.12.19-.2.37-.26.49-.17.94-.28,1.36-.32.41-.04.84-.07,1.27-.07.52,0,1.02.06,1.5.17.48.12.91.31,1.28.58s.67.63.89,1.07c.22.45.33,1,.33,1.66v.68c0,.24.02.48.05.73.03.25.12.45.26.61.14.17.36.25.66.25h.54l.42.42v1.11l-.42.42ZM115.39,196.46c0,.67-.34,1.01-1,1.01s-1-.34-1-1.01.33-.99,1-.99,1,.33,1,.99h0Z"/>
          <path class="cls-15" d="M125.14,186.32c.81,0,1.53.17,2.16.52.63.35,1.13.81,1.49,1.4.36.59.55,1.27.55,2.03s-.14,1.46-.42,2.02c-.28.56-.66.99-1.13,1.31-.47.32-1,.52-1.58.59-.58.08-1.19.02-1.82-.16-.63-.18-1.24-.48-1.81-.92-.54.6-1.29.9-2.25.9h-.89l-.42-.42v-1.11l.42-.42h.35c.35,0,.63-.11.86-.34.22-.23.33-.55.33-.97v-.49c0-.76.18-1.43.54-2.03.36-.59.85-1.06,1.48-1.4.63-.35,1.34-.52,2.15-.52ZM123.27,191.43c.67.47,1.29.74,1.88.79.58.06,1.05-.08,1.41-.41.36-.33.54-.85.54-1.55,0-.57-.18-1.04-.54-1.43-.36-.38-.82-.57-1.36-.57s-1,.19-1.36.57c-.36.38-.54.85-.54,1.43v1.01c0,.06,0,.11-.01.16Z"/>
          <path class="cls-15" d="M135.58,192.06h.23l.42.42v1.11l-.42.42h-.21c-.5,0-.94-.08-1.3-.26v.57c0,.82-.13,1.5-.39,2.05-.26.54-.61.97-1.04,1.27-.43.3-.91.49-1.43.59-.53.09-1.06.09-1.6,0-.18-.03-.3-.11-.37-.25-.06-.14-.1-.27-.1-.4v-.93c0-.16.04-.26.12-.29.08-.03.2-.04.35-.01.57.08,1.01.03,1.33-.14.31-.17.53-.45.65-.82.12-.38.18-.84.18-1.36v-6.06c0-.41.2-.61.61-.61h1.07c.41,0,.62.21.62.61v2.72c0,.47.09.82.27,1.04.18.23.52.34,1.02.34Z"/>
          <path class="cls-15" d="M141.19,192.06h.36l.42.42v1.11l-.42.42h-.21c-.94,0-1.66-.29-2.16-.87-.53.58-1.27.87-2.22.87h-1.15l-.42-.42v-1.11l.42-.42h.62c.38,0,.67-.11.88-.34.2-.23.31-.55.31-.97v-2.81c0-.4.2-.6.6-.6h1.1c.4,0,.6.2.6.6v2.73c0,.47.1.82.3,1.04.2.23.53.34.99.34ZM137.16,196.46c0-.66.33-.99,1-.99s1.01.33,1.01.99-.34,1.01-1.01,1.01-1-.34-1-1.01h0Z"/>
          <path class="cls-15" d="M142.71,194.01h-1.15l-.42-.42v-1.11l.42-.42h.62c.35,0,.63-.11.85-.34.22-.23.33-.55.33-.97v-7.6c0-.4.2-.6.6-.6h1.1c.4,0,.6.2.6.6v7.95c0,.91-.28,1.62-.83,2.14-.55.52-1.26.77-2.12.77Z"/>
          <path class="cls-15" d="M150.34,193.4c0,.41-.21.62-.62.62h-1.1c-.41,0-.61-.2-.61-.62v-10.23c0-.41.2-.62.61-.62h1.1c.41,0,.62.21.62.62v10.23h0Z"/>
          <text class="cls-16" transform="translate(151.84 194.01)"><tspan x="0" y="0"> </tspan></text>
          <path class="cls-15" d="M160.5,197.52c-.9,0-1.69-.19-2.37-.57-.68-.38-1.21-.91-1.59-1.6-.38-.69-.57-1.49-.57-2.41v-2.99c0-.41.2-.62.6-.62h1.09c.41,0,.62.21.62.62v3.12c0,.71.2,1.28.61,1.73.41.44.95.66,1.6.66s1.21-.22,1.61-.66c.4-.44.61-1.01.61-1.73v-9.9c0-.41.2-.62.6-.62h1.07c.42,0,.63.21.63.62v9.76c0,.92-.19,1.72-.56,2.41s-.9,1.22-1.58,1.6c-.68.38-1.47.57-2.37.57Z"/>
          <path class="cls-15" d="M175.14,192.06h1.2l.42.42v1.11l-.42.42h-1.26c-.11.86-.36,1.63-.76,2.31-.4.68-.94,1.21-1.63,1.6-.7.38-1.54.58-2.54.58-.37,0-.72-.03-1.06-.07-.34-.05-.75-.16-1.24-.32-.18-.06-.3-.15-.37-.27-.07-.12-.1-.25-.1-.38v-1.05c0-.29.15-.39.46-.3.36.11.66.2.92.26.25.06.48.11.7.14.21.02.44.04.68.04.65,0,1.16-.11,1.53-.34.37-.23.64-.53.82-.92.17-.39.29-.81.34-1.28h-1.86c-.81,0-1.53-.16-2.15-.48-.63-.32-1.12-.76-1.47-1.33-.36-.57-.53-1.23-.53-1.98s.18-1.42.53-2c.35-.59.85-1.05,1.48-1.39.63-.34,1.34-.51,2.15-.51s1.53.17,2.15.52c.62.35,1.12.81,1.48,1.4.36.59.54,1.27.54,2.03v1.8ZM169.06,190.21c0,.56.18,1.01.54,1.34.36.34.81.5,1.37.5h1.9v-1.8c0-.57-.18-1.04-.53-1.43-.36-.38-.81-.57-1.37-.57s-1.01.19-1.37.56c-.36.38-.54.84-.54,1.39Z"/>
          <path class="cls-15" d="M181.77,192.06h.36l.42.42v1.11l-.42.42h-.22c-.94,0-1.66-.29-2.15-.87-.53.58-1.28.87-2.24.87h-1.18l-.42-.42v-1.11l.42-.42h.66c.37,0,.66-.11.86-.34.2-.23.31-.55.31-.97v-7.6c0-.4.2-.6.62-.6h1.09c.4,0,.6.2.6.6v7.53c0,.47.1.82.3,1.04.2.23.53.34.99.34Z"/>
          <path class="cls-15" d="M191.46,194.01h-9.33l-.42-.42v-1.11l.42-.42h6.38c-.13-.17-.22-.38-.27-.64-.05-.26-.07-.57-.07-.95v-.65c0-.57-.18-.99-.53-1.27-.35-.27-.81-.41-1.36-.41-.43-.02-.84,0-1.24.07-.4.07-.86.18-1.39.35-.31.09-.47,0-.47-.3v-.91c0-.14.03-.27.1-.39.06-.12.19-.2.37-.26.49-.17.95-.28,1.4-.32.44-.04.85-.07,1.23-.07.52,0,1.02.06,1.5.17.48.12.91.31,1.28.58s.67.63.89,1.07c.22.45.33,1,.33,1.66v.68c0,.24.02.5.06.77.04.28.14.52.29.72.15.21.4.34.74.4.19.04.33.1.43.19.1.09.15.22.15.4v.46c0,.17-.04.31-.13.43-.09.12-.21.17-.37.17Z"/>
          <text class="cls-16" transform="translate(192.33 194.01)"><tspan x="0" y="0"> </tspan></text>
          <path class="cls-15" d="M205.81,192.06h.51l.42.42v1.11l-.42.42h-1.05c-1.2,0-2.05-.44-2.55-1.31-.42.27-.88.46-1.36.59-.59.14-1.18.17-1.76.1-.58-.07-1.11-.26-1.58-.57-.48-.3-.86-.72-1.14-1.26-.28-.53-.43-1.19-.43-1.96s.18-1.42.54-2c.36-.59.85-1.05,1.47-1.4.62-.35,1.32-.52,2.12-.53h3.45c.4,0,.6.2.6.6v4.49c0,.42.08.74.25.97.17.23.48.34.93.34ZM200.23,183.21c0,.67-.33,1-.99,1s-1.02-.33-1.02-1,.34-1.01,1.02-1.01.99.34.99,1.01h0ZM201.13,191.4c.42-.1.82-.29,1.2-.57v-3.21h-1.72c-.55,0-1.01.19-1.37.57-.36.38-.54.85-.54,1.41,0,.51.11.91.34,1.21.23.3.52.5.89.6.37.1.77.1,1.2-.01ZM202.9,183.21c0,.67-.34,1-1.01,1s-1.01-.33-1.01-1,.33-1.01,1.01-1.01,1.01.34,1.01,1.01h0Z"/>
          <path class="cls-15" d="M216.69,190.68h0s-.04,2.71-.04,2.71c0,.41-.2.62-.6.62h-9.72l-.42-.42v-1.11l.42-.42h8.12v-1.36c0-.41-.1-.74-.3-1-.2-.26-.64-.44-1.31-.56l-5.11-.89c-.19-.04-.34-.1-.44-.18-.1-.08-.16-.21-.16-.4v-.78c0-.26.08-.44.23-.54l4.9-3.65c.37-.3.67-.39.9-.28l.89.43c.26.13.36.27.31.4-.05.14-.19.29-.4.45l-4.14,2.96,3.03.52c1.39.24,2.38.63,2.97,1.18.59.55.89,1.32.89,2.32Z"/>
          <path class="cls-15" d="M223.09,192.06h.22l.42.42v1.11l-.42.42h-.21c-.5,0-.94-.08-1.3-.26v.57c0,.82-.13,1.5-.39,2.05-.26.54-.61.97-1.03,1.27-.43.3-.91.49-1.43.59-.53.09-1.06.09-1.6,0-.18-.03-.3-.11-.37-.25-.06-.14-.1-.27-.1-.4v-.93c0-.16.04-.26.12-.29.08-.03.19-.04.34-.01.57.08,1.01.03,1.33-.14.32-.17.53-.45.65-.82.12-.38.18-.84.18-1.36v-6.06c0-.41.2-.61.62-.61h1.06c.41,0,.62.21.62.61v2.72c0,.47.09.82.27,1.04.18.23.52.34,1.02.34Z"/>
          <path class="cls-15" d="M234.91,187.05c0-.4.2-.6.62-.6h1.09c.4,0,.6.2.6.6l-.02,3c-.01,1.28-.31,2.29-.91,3.04-.6.75-1.49,1.12-2.68,1.12-1.06,0-1.86-.35-2.38-1.05-.29.35-.65.61-1.09.79-.43.17-.92.26-1.46.26-.49,0-.93-.08-1.31-.24-.39-.16-.7-.4-.95-.72-.53.51-1.24.77-2.12.77h-1.01l-.42-.42v-1.11l.42-.42h.47c.38,0,.67-.11.88-.34.2-.23.31-.55.31-.97v-2.35c0-.4.2-.6.6-.6h1.09c.4,0,.6.2.6.6v2.59c0,.46.11.81.33,1.04.22.23.51.35.88.35.39,0,.69-.12.9-.37.21-.24.31-.57.31-.98v-2.62c0-.4.2-.6.6-.6h1.09c.4,0,.6.2.6.6v2.28c0,.46.12.85.35,1.18.23.33.6.5,1.1.52.52,0,.9-.18,1.13-.55.23-.37.35-.93.35-1.7v-3.07h0ZM230.52,185.37c0,.66-.33.99-.99.99s-1.01-.33-1.01-.99.33-1,1.01-1,.99.34.99,1h0ZM231.78,183.01c0,.61-.31.92-.93.92s-.93-.3-.93-.92.31-.91.93-.91.93.31.93.91h0ZM232.18,186.36c-.67,0-1.01-.33-1.01-.99s.33-1,1.01-1,.99.34.99,1-.33.99-.99.99h0Z"/>
          <path class="cls-15" d="M26.44,204.32c.81,0,1.53.16,2.15.49.62.33,1.12.77,1.48,1.34.36.57.54,1.21.54,1.93s-.18,1.35-.54,1.95c-.36.6-.85,1.08-1.48,1.44-.63.36-1.34.54-2.15.54h-3.72c-.46,0-.83.12-1.11.38-.28.25-.42.68-.42,1.28,0,.63.07,1.17.2,1.63.14.45.3.81.49,1.06.14.22.2.42.18.59-.02.17-.18.35-.47.52l-.5.29c-.28.17-.51.22-.69.15-.18-.07-.35-.23-.5-.48-.28-.44-.52-.95-.72-1.53-.2-.58-.3-1.28-.3-2.09,0-1.13.32-2.03.98-2.69.65-.66,1.55-1.01,2.7-1.04-.1-.35-.17-.68-.22-.97-.05-.3-.07-.57-.07-.83,0-.76.18-1.43.53-2.02.35-.59.85-1.06,1.48-1.4.63-.35,1.34-.52,2.15-.52ZM24.86,210.06h1.57c.41,0,.75-.09,1.03-.28.28-.18.5-.42.65-.71.15-.29.23-.59.23-.89,0-.56-.18-1.02-.53-1.38-.36-.36-.81-.54-1.37-.54s-1,.19-1.36.57c-.36.38-.54.85-.54,1.42,0,.23.02.5.08.8.05.3.14.64.26,1Z"/>
          <text class="cls-16" transform="translate(31.3 212.01)"><tspan x="0" y="0">.</tspan></text>
          <path class="cls-15" d="M43.63,204.32c.81,0,1.53.16,2.15.49.62.33,1.12.77,1.48,1.34.36.57.54,1.21.54,1.93s-.18,1.35-.54,1.95c-.36.6-.85,1.08-1.48,1.44-.63.36-1.34.54-2.15.54h-3.72c-.46,0-.83.12-1.11.38-.28.25-.42.68-.42,1.28,0,.63.07,1.17.2,1.63.14.45.3.81.49,1.06.14.22.2.42.18.59-.02.17-.18.35-.47.52l-.49.29c-.28.17-.51.22-.69.15-.18-.07-.35-.23-.5-.48-.28-.44-.52-.95-.72-1.53-.2-.58-.3-1.28-.3-2.09,0-1.13.32-2.03.97-2.69.65-.66,1.55-1.01,2.7-1.04-.1-.35-.17-.68-.22-.97-.04-.3-.07-.57-.07-.83,0-.76.18-1.43.53-2.02.35-.59.85-1.06,1.48-1.4s1.34-.52,2.15-.52ZM42.05,210.06h1.58c.41,0,.75-.09,1.03-.28.28-.18.49-.42.65-.71.15-.29.22-.59.22-.89,0-.56-.18-1.02-.53-1.38-.36-.36-.81-.54-1.37-.54s-1.01.19-1.37.57c-.36.38-.54.85-.54,1.42,0,.23.02.5.07.8.05.3.14.64.26,1Z"/>
          <text class="cls-16" transform="translate(48.48 212.01)"><tspan x="0" y="0">.</tspan></text>
          <path class="cls-15" d="M56.86,204.32c.79,0,1.49.16,2.12.49.62.33,1.11.77,1.47,1.34.36.57.54,1.21.54,1.93l-.05,3.32c-.02.41-.22.61-.6.61h-6.75c-.4,0-.6-.2-.6-.61v-.74c0-.4.2-.6.6-.6h5.13v-1.88c0-.56-.18-1.02-.53-1.37-.36-.35-.8-.54-1.33-.55-.39-.02-.79,0-1.19.07-.4.07-.87.19-1.4.36-.31.09-.47,0-.47-.3v-1.05c0-.14.03-.27.1-.39.06-.12.19-.2.37-.26.49-.17.94-.28,1.37-.32.42-.04.83-.07,1.23-.07ZM57.97,201.72c0,.72-.37,1.08-1.1,1.08s-1.09-.36-1.09-1.08.36-1.1,1.09-1.1,1.1.37,1.1,1.1h0Z"/>
          <text class="cls-16" transform="translate(61.86 212.01)"><tspan x="0" y="0"> </tspan></text>
          <path class="cls-15" d="M75.35,210.06h.51l.42.42v1.11l-.42.42h-1.05c-1.2,0-2.05-.43-2.55-1.3-.42.27-.88.46-1.36.59-.59.14-1.18.17-1.75.1-.58-.07-1.11-.26-1.58-.57-.48-.3-.85-.72-1.14-1.26-.29-.53-.43-1.19-.43-1.96s.18-1.42.54-2c.36-.59.85-1.05,1.47-1.4.62-.35,1.32-.52,2.12-.53h3.45c.4,0,.6.2.6.6v4.49c0,.42.08.74.26.97.17.22.48.34.93.34ZM69.77,201.21c0,.67-.33,1-.99,1s-1.02-.33-1.02-1,.34-1.01,1.02-1.01.99.34.99,1.01h0ZM70.67,209.4c.42-.1.82-.29,1.2-.57v-3.21h-1.73c-.55,0-1,.19-1.36.57-.36.38-.54.85-.54,1.41,0,.51.11.91.34,1.21.22.3.52.5.89.6.37.1.77.1,1.2-.01ZM72.44,201.21c0,.67-.34,1-1.01,1s-1-.33-1-1,.33-1.01,1-1.01,1.01.34,1.01,1.01h0Z"/>
          <path class="cls-15" d="M81.62,210.06h.74l.42.42v1.11l-.42.42h-.58c-.94,0-1.66-.29-2.16-.87-.53.58-1.27.87-2.22.87h-1.53l-.42-.42v-1.11l.42-.42h.99c.38,0,.67-.11.88-.34.2-.23.31-.55.31-.97v-2.81c0-.4.2-.6.6-.6h1.1c.4,0,.6.2.6.6v2.73c0,.47.1.82.3,1.04.2.22.53.34.99.34ZM75.92,214.46c0-.67.34-1.01,1.02-1.01s.99.33.99,1.01-.33,1.01-.99,1.01-1.02-.34-1.02-1.01h0ZM78.58,214.46c0-.67.33-1.01,1.01-1.01s1,.33,1,1.01-.34,1.01-1,1.01-1.01-.34-1.01-1.01h0Z"/>
          <path class="cls-15" d="M92,212.01h-9.66l-.42-.42v-1.11l.42-.42h6.38c-.13-.15-.22-.36-.27-.62-.05-.26-.07-.59-.07-.97v-.65c0-.57-.18-.99-.53-1.27-.35-.27-.81-.41-1.36-.41-.43,0-.84.03-1.24.08-.4.06-.86.17-1.39.34-.31.09-.46,0-.46-.3v-.91c0-.14.03-.27.1-.39.06-.12.19-.2.37-.26.49-.17.94-.28,1.36-.32.41-.04.84-.07,1.27-.07.52,0,1.02.06,1.5.17.48.12.91.31,1.28.58s.67.63.89,1.07c.22.45.33,1,.33,1.66v.68c0,.24.02.48.05.73.03.25.12.45.26.62.14.17.36.25.66.25h.54l.42.42v1.11l-.42.42ZM87.97,214.46c0,.67-.34,1.01-1,1.01s-1.01-.34-1.01-1.01.33-.99,1.01-.99,1,.33,1,.99h0Z"/>
          <path class="cls-15" d="M97.72,204.32c.81,0,1.53.17,2.16.52s1.13.81,1.49,1.4c.36.59.55,1.27.55,2.02s-.14,1.46-.42,2.02c-.28.56-.66.99-1.12,1.31-.47.32-1,.52-1.58.59-.58.08-1.19.02-1.82-.16-.63-.18-1.24-.48-1.82-.92-.54.6-1.29.9-2.25.9h-.88l-.42-.42v-1.11l.42-.42h.34c.35,0,.63-.11.86-.34.22-.23.33-.55.33-.97v-.5c0-.76.18-1.43.54-2.02.36-.59.85-1.06,1.49-1.4.63-.35,1.34-.52,2.14-.52ZM95.84,209.43c.67.47,1.29.74,1.88.79.58.06,1.05-.08,1.41-.41.36-.33.54-.85.54-1.55,0-.57-.18-1.04-.54-1.42-.36-.38-.82-.57-1.36-.57s-1,.19-1.37.57c-.36.38-.54.85-.54,1.42v1.01c0,.06,0,.11-.01.16Z"/>
          <path class="cls-15" d="M108.16,210.06h.22l.42.42v1.11l-.42.42h-.21c-.5,0-.94-.08-1.3-.25v.57c0,.82-.13,1.5-.39,2.05-.26.54-.61.97-1.04,1.27-.43.3-.91.49-1.43.59-.53.09-1.06.09-1.6,0-.18-.03-.3-.11-.37-.25-.06-.14-.1-.27-.1-.4v-.93c0-.16.04-.26.12-.29.08-.03.2-.04.35-.01.57.08,1.01.03,1.33-.14.32-.17.53-.45.65-.82.12-.38.18-.84.18-1.36v-6.06c0-.41.2-.61.61-.61h1.07c.41,0,.62.21.62.61v2.72c0,.47.09.82.27,1.04.18.22.52.34,1.02.34Z"/>
          <path class="cls-15" d="M113.77,210.06h.36l.42.42v1.11l-.42.42h-.21c-.94,0-1.66-.29-2.16-.87-.53.58-1.27.87-2.22.87h-1.15l-.42-.42v-1.11l.42-.42h.61c.38,0,.67-.11.88-.34.2-.23.31-.55.31-.97v-2.81c0-.4.2-.6.6-.6h1.1c.4,0,.6.2.6.6v2.73c0,.47.1.82.3,1.04.2.22.53.34.99.34ZM109.73,214.46c0-.66.33-.99,1.01-.99s1,.33,1,.99-.34,1.01-1,1.01-1.01-.34-1.01-1.01h0Z"/>
          <path class="cls-15" d="M115.28,212.01h-1.15l-.42-.42v-1.11l.42-.42h.62c.35,0,.63-.11.85-.34.22-.23.33-.55.33-.97v-7.6c0-.4.2-.6.6-.6h1.1c.4,0,.6.2.6.6v7.95c0,.91-.28,1.62-.82,2.14-.55.52-1.26.77-2.12.77Z"/>
          <path class="cls-15" d="M122.92,211.4c0,.41-.21.61-.62.61h-1.09c-.41,0-.62-.2-.62-.61v-10.23c0-.41.2-.62.62-.62h1.09c.41,0,.62.21.62.62v10.23h0Z"/>
          <text class="cls-16" transform="translate(124.42 212.01)"><tspan x="0" y="0"> </tspan></text>
          <path class="cls-15" d="M133.07,215.52c-.9,0-1.69-.19-2.37-.57-.68-.38-1.21-.91-1.59-1.6-.38-.69-.57-1.49-.57-2.41v-2.99c0-.41.2-.62.6-.62h1.1c.41,0,.62.21.62.62v3.12c0,.71.2,1.28.61,1.73.41.44.95.66,1.6.66s1.21-.22,1.61-.66c.4-.44.61-1.01.61-1.73v-9.9c0-.41.2-.62.6-.62h1.07c.42,0,.63.21.63.62v9.76c0,.92-.19,1.72-.56,2.41s-.9,1.22-1.58,1.6c-.68.38-1.47.57-2.37.57Z"/>
          <path class="cls-15" d="M147.71,210.06h1.2l.42.42v1.11l-.42.42h-1.26c-.11.86-.36,1.63-.76,2.31-.4.68-.94,1.21-1.63,1.6-.7.38-1.54.58-2.54.58-.37,0-.72-.03-1.06-.07-.34-.05-.75-.16-1.24-.32-.18-.06-.3-.15-.37-.27-.07-.12-.1-.25-.1-.38v-1.05c0-.29.15-.39.46-.3.36.11.66.2.92.26.25.06.48.11.7.14.21.02.44.04.68.04.65,0,1.16-.11,1.53-.34.37-.23.64-.53.82-.92.17-.39.29-.81.34-1.28h-1.86c-.81,0-1.53-.16-2.15-.48-.63-.32-1.12-.76-1.47-1.33-.36-.57-.53-1.23-.53-1.98s.18-1.42.53-2c.35-.59.85-1.05,1.48-1.39.63-.34,1.34-.51,2.15-.51s1.53.17,2.15.52c.62.35,1.12.81,1.48,1.4.36.59.54,1.27.54,2.02v1.8ZM141.64,208.21c0,.56.18,1.01.54,1.34.36.34.81.5,1.37.5h1.9v-1.8c0-.57-.18-1.04-.53-1.42-.36-.38-.81-.57-1.37-.57s-1.01.19-1.37.56-.54.84-.54,1.39Z"/>
          <path class="cls-15" d="M154.34,210.06h.36l.42.42v1.11l-.42.42h-.23c-.94,0-1.66-.29-2.15-.87-.53.58-1.27.87-2.24.87h-1.18l-.42-.42v-1.11l.42-.42h.66c.37,0,.66-.11.86-.34.2-.23.31-.55.31-.97v-7.6c0-.4.2-.6.61-.6h1.1c.4,0,.6.2.6.6v7.53c0,.47.1.82.3,1.04.2.22.53.34.99.34Z"/>
          <path class="cls-15" d="M164.36,212.01h-9.66l-.42-.42v-1.11l.42-.42h6.38c-.13-.15-.22-.36-.27-.62-.05-.26-.08-.59-.08-.97v-.65c0-.57-.18-.99-.52-1.27-.35-.27-.81-.41-1.36-.41-.43,0-.84.03-1.24.08-.4.06-.86.17-1.39.34-.31.09-.47,0-.47-.3v-.91c0-.14.03-.27.1-.39.06-.12.19-.2.37-.26.49-.17.94-.28,1.36-.32.41-.04.84-.07,1.27-.07.52,0,1.02.06,1.5.17.48.12.91.31,1.28.58s.67.63.89,1.07c.22.45.33,1,.33,1.66v.68c0,.24.02.48.05.73.03.25.12.45.26.62.14.17.36.25.66.25h.54l.42.42v1.11l-.42.42Z"/>
          <path class="cls-15" d="M165.51,212.01h-1.15l-.42-.42v-1.11l.42-.42h.62c.35,0,.63-.11.85-.34.22-.23.33-.55.33-.97v-7.6c0-.4.2-.6.6-.6h1.1c.4,0,.6.2.6.6v7.95c0,.91-.28,1.62-.83,2.14-.55.52-1.26.77-2.12.77Z"/>
          <path class="cls-15" d="M173.15,211.4c0,.41-.21.61-.62.61h-1.1c-.41,0-.61-.2-.61-.61v-10.23c0-.41.2-.62.61-.62h1.1c.41,0,.62.21.62.62v10.23h0Z"/>
          <text class="cls-16" transform="translate(174.65 212.01)"><tspan x="0" y="0"> </tspan></text>
          <path class="cls-15" d="M183,204.32c.81,0,1.53.17,2.15.51.62.34,1.12.81,1.48,1.4.36.6.54,1.27.54,2.02v2.73c0,1.03-.18,1.96-.54,2.8-.36.83-.91,1.5-1.65,1.99-.74.49-1.68.74-2.8.74-.37,0-.72-.03-1.06-.07-.34-.05-.75-.16-1.24-.32-.18-.06-.3-.15-.37-.27-.07-.12-.1-.25-.1-.38v-1.05c0-.29.15-.39.47-.3.36.11.66.2.91.26.25.06.48.11.7.14.21.02.44.04.68.04.57,0,1.03-.09,1.38-.26.35-.18.62-.42.82-.72.2-.31.33-.65.41-1.04.07-.39.12-.79.13-1.22-.24.24-.54.45-.89.63-.36.18-.77.27-1.24.27-.74,0-1.41-.17-2-.52-.6-.35-1.07-.81-1.41-1.41-.35-.59-.52-1.27-.52-2.02s.18-1.43.53-2.02c.35-.59.85-1.06,1.48-1.4.63-.35,1.34-.52,2.15-.52ZM183,210.26c.33,0,.64-.08.93-.25.29-.17.52-.39.7-.67.18-.28.27-.58.27-.91v-.17c0-.57-.18-1.04-.53-1.42-.36-.38-.81-.57-1.37-.57s-1.01.19-1.36.57c-.36.38-.54.85-.54,1.42s.18,1.03.54,1.42c.36.39.81.58,1.36.58Z"/>
          <text class="cls-16" transform="translate(188.05 212.01)"><tspan x="0" y="0"> </tspan></text>
          <path class="cls-15" d="M202.71,212.01h-7.61c-.86,0-1.57-.25-2.11-.76-.55-.5-.82-1.22-.82-2.15v-3.15c0-.4.19-.6.58-.6h1.11c.4,0,.6.2.6.6v2.81c0,.42.1.74.31.97.21.22.5.34.87.34h6.54c.36,0,.65-.11.86-.34.21-.23.31-.55.31-.97v-2.81c0-.4.2-.6.62-.6h1.1c.4,0,.6.2.6.6v3.15c0,.93-.28,1.65-.83,2.15-.55.51-1.26.76-2.13.76ZM198.57,202.89c0,.67-.33,1.01-.99,1.01s-1.02-.33-1.02-1.01.34-1.01,1.02-1.01.99.34.99,1.01h0ZM201.24,202.89c0,.67-.34,1.01-1.01,1.01s-1.01-.33-1.01-1.01.33-1.01,1.01-1.01,1.01.34,1.01,1.01h0Z"/>
          <path class="cls-15" d="M211.83,212.01h-.85c-.87,0-1.58-.26-2.13-.77-.55-.51-.82-1.23-.82-2.14v-7.95c0-.4.2-.6.6-.6h1.1c.41,0,.61.2.61.6v7.6c0,.42.11.74.32.97.21.22.5.34.85.34h.33l.42.42v1.11l-.42.42Z"/>
          <path class="cls-15" d="M217.53,204.32c.81,0,1.53.17,2.16.52s1.13.81,1.49,1.4c.36.59.55,1.27.55,2.02s-.14,1.46-.42,2.02c-.28.56-.66.99-1.12,1.31-.47.32-1,.52-1.58.59-.59.08-1.19.02-1.82-.16-.63-.18-1.24-.48-1.82-.92-.54.6-1.29.9-2.25.9h-.88l-.42-.42v-1.11l.42-.42h.35c.35,0,.63-.11.85-.34.22-.23.33-.55.33-.97v-.5c0-.76.18-1.43.54-2.02.36-.59.85-1.06,1.48-1.4.63-.35,1.34-.52,2.15-.52ZM215.66,209.43c.67.47,1.29.74,1.88.79.58.06,1.05-.08,1.41-.41.36-.33.54-.85.54-1.55,0-.57-.18-1.04-.54-1.42-.36-.38-.82-.57-1.37-.57s-1,.19-1.36.57c-.36.38-.54.85-.54,1.42v1.01c0,.06,0,.11-.01.16Z"/>
          <path class="cls-15" d="M231.71,210.06h1.2l.42.42v1.11l-.42.42h-1.26c-.11.86-.36,1.63-.76,2.31-.4.68-.94,1.21-1.63,1.6-.7.38-1.54.58-2.54.58-.37,0-.72-.03-1.06-.07-.34-.05-.75-.16-1.24-.32-.18-.06-.3-.15-.37-.27-.07-.12-.1-.25-.1-.38v-1.05c0-.29.15-.39.47-.3.36.11.66.2.91.26.25.06.48.11.7.14.21.02.44.04.68.04.65,0,1.16-.11,1.53-.34.37-.23.64-.53.82-.92.17-.39.29-.81.34-1.28h-1.86c-.81,0-1.53-.16-2.15-.48-.63-.32-1.12-.76-1.47-1.33-.36-.57-.53-1.23-.53-1.98s.18-1.42.53-2c.35-.59.85-1.05,1.48-1.39.63-.34,1.34-.51,2.14-.51s1.53.17,2.15.52c.62.35,1.12.81,1.48,1.4.36.59.54,1.27.54,2.02v1.8ZM225.63,208.21c0,.56.18,1.01.54,1.34.36.34.81.5,1.36.5h1.91v-1.8c0-.57-.18-1.04-.53-1.42-.36-.38-.81-.57-1.37-.57s-1,.19-1.36.56c-.36.38-.54.84-.54,1.39Z"/>
          <path class="cls-15" d="M238.34,210.06h.36l.42.42v1.11l-.42.42h-.23c-.94,0-1.66-.29-2.15-.87-.53.58-1.27.87-2.24.87h-1.18l-.42-.42v-1.11l.42-.42h.66c.37,0,.66-.11.86-.34.2-.23.31-.55.31-.97v-7.6c0-.4.2-.6.62-.6h1.1c.4,0,.6.2.6.6v7.53c0,.47.1.82.3,1.04.2.22.53.34.99.34Z"/>
          <path class="cls-15" d="M246.78,209.84c.18.14.43.22.75.22h1.53l.42.42v1.11l-.42.42h-1.54c-.47-.03-.86-.13-1.18-.31-.32-.18-.57-.44-.77-.76-.33.28-.62.5-.86.65-.24.16-.47.27-.7.33-.22.07-.48.1-.77.1h-4.54l-.42-.42v-1.11l.42-.42h3.18l-1.99-3.68c-.08-.14-.13-.25-.14-.34-.02-.09.02-.2.1-.35l.6-1.1c.07-.13.15-.23.24-.32.09-.08.2-.12.33-.12h2.97c.7,0,1.33.06,1.9.19.56.13,1.03.36,1.4.69.37.34.61.82.72,1.45.11.61.05,1.2-.18,1.78-.23.58-.58,1.1-1.04,1.57h0ZM243.98,206.12h-2.06l1.94,3.72c.2-.11.41-.25.63-.43.22-.17.43-.37.63-.58.22-.23.4-.47.53-.73.14-.26.19-.51.17-.77-.01-.43-.17-.74-.48-.93-.31-.19-.76-.29-1.36-.29Z"/>
          <path class="cls-15" d="M260.22,210.06h.33l.42.42v1.11l-.42.42h-.19c-1.03,0-1.79-.35-2.28-1.05-.43.53-.97.89-1.63,1.09-.66.2-1.37.21-2.12.06s-1.47-.49-2.16-1c-.54.6-1.3.9-2.26.9h-.84l-.42-.42v-1.11l.42-.42h.32c.35,0,.63-.11.85-.34.21-.23.32-.55.32-.97v-.5c0-.76.18-1.43.54-2.02.36-.59.85-1.06,1.49-1.4.63-.35,1.34-.52,2.14-.52s1.53.17,2.17.52c.63.35,1.13.81,1.5,1.4.36.59.55,1.27.55,2.02v.48c0,.44.1.77.3.99.2.22.53.33.99.33ZM252.84,209.42c.67.48,1.29.75,1.88.81.58.06,1.05-.08,1.41-.41.36-.33.54-.85.54-1.55,0-.57-.18-1.04-.54-1.42-.36-.38-.82-.57-1.37-.57s-1,.19-1.36.57c-.36.38-.54.85-.54,1.42v1c0,.06,0,.11-.01.16Z"/>
          <path class="cls-15" d="M261.71,212.01h-1.15l-.42-.42v-1.11l.42-.42h.62c.35,0,.63-.11.85-.34.22-.23.33-.55.33-.97v-7.6c0-.4.2-.6.6-.6h1.1c.4,0,.6.2.6.6v7.95c0,.91-.28,1.62-.82,2.14-.55.52-1.26.77-2.12.77Z"/>
          <path class="cls-15" d="M269.34,211.4c0,.41-.21.61-.61.61h-1.1c-.41,0-.61-.2-.61-.61v-10.23c0-.41.2-.62.61-.62h1.1c.41,0,.61.21.61.62v10.23h0Z"/>
          <text class="cls-16" transform="translate(270.84 212.01)"><tspan x="0" y="0"> </tspan></text>
          <path class="cls-15" d="M284.33,210.06h.51l.42.42v1.11l-.42.42h-1.05c-1.2,0-2.05-.43-2.55-1.3-.42.27-.88.46-1.37.59-.59.14-1.18.17-1.76.1-.58-.07-1.11-.26-1.58-.57-.48-.3-.86-.72-1.14-1.26-.28-.53-.43-1.19-.43-1.96s.18-1.42.54-2c.36-.59.85-1.05,1.47-1.4.62-.35,1.32-.52,2.11-.53h3.45c.4,0,.6.2.6.6v4.49c0,.42.08.74.25.97.17.22.48.34.93.34ZM278.75,201.21c0,.67-.33,1-.99,1s-1.02-.33-1.02-1,.34-1.01,1.02-1.01.99.34.99,1.01h0ZM279.65,209.4c.42-.1.82-.29,1.2-.57v-3.21h-1.73c-.55,0-1.01.19-1.36.57-.36.38-.54.85-.54,1.41,0,.51.11.91.34,1.21.23.3.52.5.89.6.37.1.77.1,1.2-.01ZM281.42,201.21c0,.67-.34,1-1.01,1s-1.01-.33-1.01-1,.33-1.01,1.01-1.01,1.01.34,1.01,1.01h0Z"/>
          <path class="cls-15" d="M290.6,210.06h.74l.42.42v1.11l-.42.42h-.58c-.94,0-1.66-.29-2.16-.87-.53.58-1.27.87-2.22.87h-1.53l-.42-.42v-1.11l.42-.42h.99c.38,0,.67-.11.88-.34.2-.23.31-.55.31-.97v-2.81c0-.4.2-.6.6-.6h1.09c.4,0,.6.2.6.6v2.73c0,.47.1.82.3,1.04.2.22.53.34.99.34ZM284.9,214.46c0-.67.34-1.01,1.02-1.01s.99.33.99,1.01-.33,1.01-.99,1.01-1.02-.34-1.02-1.01h0ZM287.55,214.46c0-.67.33-1.01,1.01-1.01s1.01.33,1.01,1.01-.34,1.01-1.01,1.01-1.01-.34-1.01-1.01h0Z"/>
          <path class="cls-15" d="M296.72,210.06h.36l.42.42v1.11l-.42.42h-.21c-.94,0-1.66-.29-2.16-.87-.53.58-1.27.87-2.22.87h-1.15l-.42-.42v-1.11l.42-.42h.61c.38,0,.67-.11.88-.34.2-.23.31-.55.31-.97v-2.81c0-.4.2-.6.6-.6h1.1c.4,0,.6.2.6.6v2.73c0,.47.1.82.3,1.04.2.22.53.34.99.34ZM295.43,202.86c0,.73-.37,1.1-1.09,1.1s-1.1-.36-1.1-1.1.36-1.1,1.1-1.1,1.09.37,1.09,1.1h0Z"/>
          <path class="cls-15" d="M306.53,208.26c0,.57-.13,1.17-.4,1.8h1.53l.42.42v1.11l-.42.42h-10.57l-.42-.42v-1.11l.42-.42h1.8c-.45-.54-.67-1.2-.67-1.98,0-.72.18-1.37.54-1.93.36-.57.86-1.02,1.49-1.34.63-.32,1.34-.49,2.14-.49s1.53.17,2.15.52c.62.35,1.11.81,1.47,1.4.35.59.53,1.27.53,2.02h0ZM302.03,201.87c0,.67-.33,1.01-.99,1.01s-1.02-.33-1.02-1.01.34-1,1.02-1,.99.34.99,1h0ZM302.37,210.06h1.49c.28-.7.42-1.3.42-1.8,0-.57-.18-1.04-.54-1.42-.36-.38-.82-.57-1.37-.57s-1.01.18-1.36.54c-.36.36-.54.82-.54,1.38,0,.3.08.59.23.88s.37.52.65.71c.29.19.63.28,1.03.29ZM304.7,201.87c0,.67-.34,1.01-1.01,1.01s-1.01-.33-1.01-1.01.33-1,1.01-1,1.01.34,1.01,1h0Z"/>
          <path class="cls-15" d="M313.41,210.06h.74l.42.42v1.11l-.42.42h-.58c-.94,0-1.66-.29-2.16-.87-.53.58-1.27.87-2.22.87h-1.53l-.42-.42v-1.11l.42-.42h.99c.38,0,.67-.11.88-.34.2-.23.31-.55.31-.97v-2.81c0-.4.2-.6.6-.6h1.1c.4,0,.6.2.6.6v2.73c0,.47.1.82.3,1.04.2.22.53.34.99.34ZM310.65,202.9c0,.67-.33,1.01-.99,1.01s-1.02-.33-1.02-1.01.34-1,1.02-1,.99.34.99,1h0ZM313.32,202.9c0,.67-.34,1.01-1.01,1.01s-1-.33-1-1.01.33-1,1-1,1.01.34,1.01,1h0Z"/>
          <path class="cls-15" d="M315.3,212.01h-1.16l-.42-.42v-1.11l.42-.42h.62c.35,0,.63-.11.85-.34.22-.23.33-.55.33-.97v-7.6c0-.4.2-.6.6-.6h1.1c.4,0,.6.2.6.6v7.95c0,.91-.28,1.62-.83,2.14-.55.52-1.26.77-2.11.77Z"/>
          <text class="cls-20" transform="translate(129.2 232.23)"><tspan x="0" y="0">P</tspan></text>
          <text class="cls-20" transform="translate(140.79 232.23)"><tspan x="0" y="0">S</tspan></text>
          <text class="cls-20" transform="translate(151.84 232.23)"><tspan x="0" y="0">C</tspan></text>
          <text class="cls-20" transform="translate(163.75 232.23)"><tspan x="0" y="0">.</tspan></text>
          <text class="cls-20" transform="translate(170.26 232.23)"><tspan x="0" y="0"> </tspan></text>
          <text class="cls-20" transform="translate(177.31 232.23)"><tspan x="0" y="0">L</tspan></text>
          <text class="cls-20" transform="translate(187.74 232.23)"><tspan x="0" y="0">T</tspan></text>
          <text class="cls-20" transform="translate(198.32 232.23)"><tspan x="0" y="0">D</tspan></text>
        </g>
        <g class="cls-33">
          <g class="cls-4">
            <g class="cls-6">
              <g class="cls-31">
                <rect class="cls-28" x="223.37" y="137.46" width="16.07" height="16.07"/>
              </g>
            </g>
          </g>
        </g>
        <g class="cls-23">
          <g class="cls-1">
            <g class="cls-8">
              <g class="cls-9">
                <rect class="cls-15" x="207.29" y="121.39" width="16.07" height="16.07"/>
              </g>
            </g>
          </g>
        </g>
        <g class="cls-36">
          <g class="cls-13">
            <g class="cls-26">
              <g class="cls-14">
                <rect class="cls-28" x="223.37" y="105.31" width="16.07" height="16.07"/>
              </g>
            </g>
          </g>
        </g>
        <g class="cls-19">
          <path class="cls-15" d="M229.11,141.65c0-.16.13-.28.28-.28s.28.13.28.28-.13.28-.28.28-.28-.13-.28-.28ZM233.14,141.65c0-.16.13-.28.28-.28s.28.13.28.28-.13.28-.28.28-.28-.13-.28-.28ZM230.45,149.35c0-.16.13-.28.28-.28s.28.13.28.28-.13.28-.28.28-.28-.13-.28-.28ZM230.45,147.42c0-.16.13-.28.28-.28s.28.13.28.28-.13.28-.28.28-.28-.13-.28-.28ZM233.14,142.61c0-.16.13-.28.28-.28s.28.13.28.28-.13.28-.28.28-.28-.13-.28-.28ZM230.45,141.65c0-.16.13-.28.28-.28s.28.13.28.28-.13.28-.28.28-.28-.13-.28-.28ZM230.45,140.69c0-.16.12-.29.28-.29.08,0,.15.03.21.09.07.07.16.12.26.12h.42c.1,0,.19-.05.26-.12.05-.05.12-.09.21-.09.16,0,.29.13.28.29,0,.15-.13.27-.28.27-.08,0-.16-.03-.21-.09-.07-.07-.16-.12-.26-.12h-.42c-.1,0-.19.05-.26.12-.05.06-.13.09-.21.09-.15,0-.28-.13-.28-.27ZM230.45,143.57c0-.16.13-.28.28-.28s.28.13.28.28-.13.28-.28.28-.28-.13-.28-.28ZM230.45,148.39c0-.16.13-.28.28-.28s.28.13.28.28-.13.28-.28.28-.28-.13-.28-.28ZM226.42,144.53c0-.16.13-.28.28-.28s.28.13.28.28-.13.28-.28.28-.28-.13-.28-.28ZM226.42,143.57c0-.16.13-.28.28-.28s.28.13.28.28-.13.28-.28.28-.28-.13-.28-.28ZM227.86,145.7c-.05-.05-.09-.12-.09-.21,0-.16.13-.29.29-.28.15,0,.27.13.27.28,0,.08-.03.16-.09.21-.07.07-.12.16-.12.26v.03c0,.1.04.19.11.25.01,0,.02.02.03.03.06.07.16.11.25.11h.42c.1,0,.19-.04.26-.12.06-.06.14-.1.23-.09.13.01.24.12.25.25.01.14-.08.26-.21.3v.42c.12.03.21.14.21.27,0,.16-.13.29-.29.28-.15,0-.27-.13-.27-.28,0-.13.09-.24.21-.27v-.42c-.05-.02-.1-.05-.14-.09-.06-.07-.16-.11-.25-.11h-.42c-.1,0-.19.04-.26.12-.06.06-.14.1-.23.09-.13-.01-.24-.12-.25-.25,0-.09.03-.18.09-.23.07-.07.12-.16.12-.26v-.03c0-.1-.05-.19-.12-.26ZM226.42,140.68c0-.16.13-.28.28-.28s.28.13.28.28-.13.28-.28.28-.28-.13-.28-.28ZM226.63,146.96v-.03c0-.1-.05-.19-.12-.26-.05-.05-.09-.12-.09-.21,0-.16.13-.29.29-.28.15,0,.27.13.27.28,0,.08-.03.16-.09.21-.07.07-.12.16-.12.26v.03c0,.1.05.19.12.26,0,0,0,0,0,0,0,0,0,0,0,0,.07.07.16.12.26.12h.03c.1,0,.19-.05.26-.12.05-.05.12-.09.21-.09.16,0,.29.13.28.29,0,.15-.13.27-.28.27-.08,0-.16-.03-.21-.09-.07-.07-.16-.12-.26-.12h-.03c-.1,0-.19.05-.26.12-.02.02-.05.04-.08.06,0,0,0,0,0,0,0,0-.02,0-.03.01-.01,0-.02,0-.03.01,0,0,0,0,0,0,0,0-.01,0-.02,0,0,0,0,0-.01,0,0,0,0,0-.01,0,0,0,0,0-.01,0,0,0,0,0,0,0,0,0,0,0,0,0,0,0,0,0,0,0,0,0,0,0-.01,0,0,0,0,0-.01,0,0,0-.01,0-.02,0,0,0,0,0,0,0-.11-.02-.19-.11-.22-.21,0,0,0,0,0,0,0,0,0-.01,0-.02,0,0,0,0,0-.01,0,0,0,0,0-.01,0,0,0,0,0-.01,0,0,0,0,0,0s0,0,0,0c0,0,0,0,0-.01,0,0,0-.01,0-.02,0,0,0,0,0-.01,0,0,0-.01,0-.02,0,0,0,0,0-.01,0,0,0-.01,0-.02,0,0,0,0,0-.01,0,0,0-.01,0-.02,0,0,0,0,0-.01,0,0,0-.01,0-.02,0,0,0,0,0,0,0,0,0-.01,0-.02,0,0,0,0,0,0,0,0,0-.01.01-.02,0,0,0,0,0,0,0,0,0-.01.01-.02,0,0,0,0,0,0,.07-.07.12-.16.12-.26ZM226.63,142.14v-.03c0-.1-.05-.19-.12-.26-.05-.05-.09-.12-.09-.21,0-.16.13-.29.29-.28.15,0,.27.13.27.28,0,.08-.03.16-.09.21-.07.07-.12.16-.12.26v.03c0,.1.05.19.12.26.06.05.09.13.09.21,0,.15-.13.28-.27.28-.16,0-.29-.12-.29-.28,0-.08.03-.15.09-.21.07-.07.12-.16.12-.26ZM227.97,142.14v-.03c0-.1-.05-.19-.12-.26-.05-.05-.09-.12-.09-.21,0-.16.13-.29.29-.28.15,0,.27.13.27.28,0,.08-.03.16-.09.21-.07.07-.12.16-.12.26v.03c0,.1.05.19.12.26.06.05.09.13.09.21,0,.15-.13.28-.27.28-.16,0-.29-.12-.29-.28,0-.08.03-.15.09-.21.07-.07.12-.16.12-.26ZM227.77,140.68c0-.16.13-.28.28-.28s.28.13.28.28-.13.28-.28.28-.28-.13-.28-.28ZM228.26,144.34c.07.07.16.12.26.12h.42c.1,0,.19-.04.25-.11,0-.01.02-.02.03-.03.07-.06.11-.16.11-.25v-.03c0-.1-.05-.19-.12-.26-.05-.05-.09-.12-.09-.21,0-.16.13-.29.29-.28.15,0,.27.13.27.28,0,.08-.03.16-.09.21-.07.07-.12.16-.12.26v.03c0,.1.04.19.12.26.06.06.1.14.09.23-.01.13-.12.24-.25.25-.09,0-.18-.03-.23-.09-.07-.07-.16-.12-.26-.12h-.42c-.1,0-.19.05-.26.12-.05.06-.13.09-.21.09-.15,0-.28-.13-.28-.27,0-.16.12-.29.28-.29.08,0,.15.03.21.09ZM231.8,149.35c0-.16.13-.28.28-.28s.28.13.28.28-.13.28-.28.28-.28-.13-.28-.28ZM232.36,142.61c0,.16-.13.28-.28.28s-.28-.13-.28-.28.13-.28.28-.28.28.13.28.28ZM233.35,146v-.03c0-.1-.05-.19-.12-.26-.06-.05-.09-.13-.09-.21,0-.15.13-.28.27-.28.16,0,.29.12.29.28,0,.08-.03.15-.09.21-.07.07-.12.16-.12.26v.03c0,.1.05.19.12.26.05.05.09.12.09.21s-.03.15-.09.21c-.07.07-.12.16-.12.26v.03c0,.1.05.19.12.26.05.05.09.12.09.21,0,.16-.13.29-.29.28-.15,0-.27-.13-.27-.28,0-.08.03-.16.09-.21.07-.07.12-.16.12-.26v-.03c0-.1-.05-.19-.12-.26-.05-.05-.09-.12-.09-.21s.03-.15.09-.21c.07-.07.12-.16.12-.26ZM232.29,143.38c.07.07.16.12.26.12h.42c.1,0,.19-.05.26-.12.05-.05.12-.09.21-.09.16,0,.29.13.28.29,0,.15-.13.27-.28.27-.08,0-.16-.03-.21-.09-.07-.07-.16-.12-.26-.12h-.42c-.1,0-.19.05-.26.12-.05.06-.13.09-.21.09-.15,0-.28-.13-.28-.27,0-.16.12-.29.28-.29.08,0,.15.03.21.09ZM229.68,150.31c0,.16-.13.28-.28.28s-.28-.13-.28-.28.13-.28.28-.28.28.13.28.28ZM228.33,148.38c0,.16-.12.29-.28.29-.08,0-.15-.03-.21-.09-.07-.07-.16-.12-.26-.12h-.42c-.1,0-.19.05-.26.12-.05.05-.12.09-.21.09-.16,0-.29-.13-.28-.29,0-.15.13-.27.28-.27.08,0,.16.03.21.09.07.07.16.12.26.12h.42c.1,0,.19-.05.26-.12.05-.06.13-.09.21-.09.15,0,.28.13.28.27ZM233.5,149.81v.03c0,.1.05.19.12.26.06.06.1.14.09.23-.01.13-.12.24-.25.25-.09,0-.18-.03-.23-.09-.07-.07-.16-.12-.26-.12h-.42c-.1,0-.19.05-.26.12-.05.05-.12.09-.21.09-.16,0-.29-.13-.28-.29,0-.15.13-.27.28-.27.08,0,.16.03.21.09.07.07.16.12.26.12h.42c.1,0,.19-.04.25-.11,0-.01.02-.02.03-.03.07-.06.11-.16.11-.25v-.03c0-.1-.05-.19-.12-.26-.06-.05-.09-.13-.09-.21,0-.15.13-.28.27-.28.16,0,.29.12.29.28,0,.08-.03.15-.09.21-.07.07-.12.16-.12.26ZM229.68,148.39c0,.16-.13.28-.28.28s-.28-.13-.28-.28.13-.28.28-.28.28.13.28.28ZM231.8,147.42c0-.16.13-.28.28-.28s.28.13.28.28-.13.28-.28.28-.28-.13-.28-.28ZM233.14,140.68c0-.16.13-.28.28-.28s.28.13.28.28-.13.28-.28.28-.28-.13-.28-.28ZM234.49,144.53c0-.16.13-.28.28-.28s.28.13.28.28-.13.28-.28.28-.28-.13-.28-.28ZM234.69,146v-.03c0-.1-.05-.19-.12-.26-.05-.05-.09-.12-.09-.21,0-.16.13-.29.29-.28.15,0,.27.13.27.28,0,.08-.03.16-.09.21-.07.07-.12.16-.12.26v.03c0,.1.05.19.12.26.06.05.09.13.09.21,0,.15-.13.28-.27.28-.16,0-.29-.12-.29-.28,0-.08.03-.15.09-.21.07-.07.12-.16.12-.26ZM234.49,142.61c0-.16.13-.28.28-.28s.28.13.28.28-.13.28-.28.28-.28-.13-.28-.28ZM234.49,147.42c0-.16.13-.28.28-.28s.28.13.28.28-.13.28-.28.28-.28-.13-.28-.28ZM236.04,143.11v-.03c0-.1-.05-.19-.12-.26-.05-.05-.09-.12-.09-.21,0-.16.13-.29.29-.28.15,0,.27.13.27.28,0,.08-.03.16-.09.21-.07.07-.12.16-.12.26v.03c0,.1.05.19.12.26.06.05.09.13.09.21,0,.15-.13.28-.27.28-.16,0-.29-.12-.29-.28,0-.08.03-.15.09-.21.07-.07.12-.16.12-.26ZM233.63,148.19c.07.07.16.12.26.12h.42c.1,0,.19-.05.26-.12.05-.06.13-.09.21-.09.15,0,.28.13.28.27,0,.16-.12.29-.28.29-.08,0-.15-.03-.21-.09-.07-.07-.16-.12-.26-.12h-.42c-.1,0-.19.05-.26.12-.05.05-.12.09-.21.09-.16,0-.29-.13-.28-.29,0-.15.13-.27.28-.27.08,0,.16.03.21.09ZM236.4,147.42c0,.16-.13.28-.28.28s-.28-.13-.28-.28.13-.28.28-.28.28.13.28.28ZM236.4,148.39c0,.16-.13.28-.28.28s-.28-.13-.28-.28.13-.28.28-.28.28.13.28.28ZM236.4,144.53c0,.16-.13.28-.28.28s-.28-.13-.28-.28.13-.28.28-.28.28.13.28.28ZM230.94,146.26h0v-1.53h0s0,0,0,0h.94v1.53h0s0,0,0,0h-.94ZM234.97,141.45h0v-.56h0s0,0,0,0h.94v.56h0s0,0,0,0h-.94ZM234.67,140.95v-.3s.03-.06.06-.06h1.42s.06.03.06.06v1.04s-.03.06-.06.06h-1.42s-.06-.03-.06-.06v-.74ZM234.73,141.93h1.42c.14,0,.25-.11.25-.25v-1.04c0-.14-.11-.25-.25-.25h-1.42c-.14,0-.25.11-.25.25v1.04c0,.14.11.25.25.25ZM226.91,150.11h0v-.56h0s0,0,0,0h.94v.56h0s0,0,0,0h-.94ZM226.6,149.61v-.3s.03-.06.06-.06h1.42s.06.03.06.06v1.04s-.03.06-.06.06h-1.42s-.06-.03-.06-.06v-.74ZM226.67,150.59h1.42c.14,0,.25-.11.25-.25v-1.04c0-.14-.11-.25-.25-.25h-1.42c-.14,0-.25.11-.25.25v1.04c0,.14.11.25.25.25ZM235.91,149.55h0v.56h0s0,0,0,0h-.94v-.56h0s0,0,0,0h.94ZM236.21,150.05v.3s-.03.06-.06.06h-1.42s-.06-.03-.06-.06v-1.04s.03-.06.06-.06h1.42s.06.03.06.06v.74ZM236.15,149.06h-1.42c-.14,0-.25.11-.25.25v1.04c0,.14.11.25.25.25h1.42c.14,0,.25-.11.25-.25v-1.04c0-.14-.11-.25-.25-.25ZM230.64,145.76v-1.26s.03-.06.06-.06h1.42s.06.03.06.06v2s-.03.06-.06.06h-1.42s-.06-.03-.06-.06v-.74ZM230.7,146.74h1.42c.14,0,.25-.11.25-.25v-2c0-.14-.11-.25-.25-.25h-1.42c-.14,0-.25.11-.25.25v2c0,.14.11.25.25.25Z"/>
        </g>
        <rect class="cls-27" x="239.45" y="69.09" width="40.22" height="40.22"/>
        <rect class="cls-27" x="247.04" y="76.43" width="25.03" height="25.54"/>
        <rect class="cls-27" x="223.37" y="137.46" width="16.07" height="16.07"/>
        <rect class="cls-27" x="226.41" y="140.39" width="10" height="10.21"/>
        <rect class="cls-27" x="207.3" y="121.39" width="16.07" height="16.07"/>
        <rect class="cls-27" x="223.37" y="105.31" width="16.07" height="16.07"/>
        <rect class="cls-27" x="279.67" y="109.31" width="40.22" height="40.22"/>
        <rect class="cls-27" x="239.45" y="149.53" width="40.22" height="40.22"/>
      </g>
    </g>
  </g>
</svg>